<?xml version="1.0" encoding="UTF-8"?>
<svg id="Layer_1" data-name="Layer 1" xmlns="http://www.w3.org/2000/svg" viewBox="0 0 490 128">
  <defs>
    <style>
      .cls-1 {
        fill: #fbb03b;
      }

      .cls-1, .cls-2, .cls-3 {
        stroke-width: 0px;
      }

      .cls-2 {
        fill: #8646ff;
      }

      .cls-3 {
        fill: #232323;
      }
    </style>
  </defs>
  <path class="cls-2" d="M101.53,29.95c-19.64-19.64-51.48-19.64-71.12,0-7.49,7.49-12.1,16.76-13.88,26.44,0,0-.01.02-.02.03-.06.35-.11.7-.16,1.05-.07.46-.15.92-.22,1.38-.08.62-.14,1.24-.2,1.86-.06.58-.1,1.16-.14,1.75-.04.67-.08,1.35-.09,2.03,0,.41,0,.81,0,1.22,0,.58,0,1.15.03,1.73.02.41.04.82.06,1.23.04.59.08,1.17.14,1.76.04.39.08.77.12,1.16.08.64.17,1.28.27,1.93.05.32.1.65.15.97.17.96.37,1.92.6,2.87,4.9-31.79,42.81-28.15,63.48-26.42,22.45,1.88,27.06-14.87,20.97-20.97"/>
  <path class="cls-1" d="M72.18,115.4c.68-.08,1.35-.2,2.03-.31.63-.1,1.26-.19,1.88-.32.67-.14,1.34-.32,2-.48.62-.15,1.24-.28,1.85-.46.87-.25,1.72-.55,2.58-.85,1-.35,1.99-.74,2.98-1.15.58-.25,1.16-.47,1.74-.74.64-.3,1.27-.64,1.9-.97.56-.29,1.12-.57,1.66-.88.62-.35,1.23-.74,1.85-1.13.54-.34,1.07-.67,1.6-1.03.6-.41,1.18-.84,1.77-1.28.33-.24.67-.46.99-.71-.05.03-.1.05-.15.07,1.62-1.26,3.2-2.6,4.69-4.09,3.4-3.4,6.21-7.16,8.43-11.16-13.06,13.9-35.73,20.46-49.79,12.71-15.21-8.38-14.45-21.29,5.34-20.91,11.5.22,19.71.9,28.58-1.11,14.76-3.34,23.73-18.61,18.88-32.94-.15-.43-.3-.85-.46-1.23-5.22,10.88-17.47,16.6-32.84,15.3-1.01-.08-2.05-.17-3.12-.26-25.9-2.28-47.02-.03-49.27,22.5-.78,7.83,4.51,18.49,12.59,24.55h0c1.16.71,2.35,1.36,3.55,1.96.4.2.81.37,1.22.56.81.38,1.62.76,2.44,1.09.5.2,1,.37,1.5.56.75.28,1.5.55,2.25.79.54.17,1.09.32,1.64.47.72.2,1.45.4,2.18.57.58.13,1.15.25,1.73.36.71.14,1.43.26,2.14.37.6.09,1.2.17,1.8.23.71.08,1.41.14,2.12.19.61.04,1.22.08,1.84.1.7.02,1.4.03,2.1.02.62,0,1.24-.01,1.86-.04.69-.03,1.37-.09,2.06-.15.63-.05,1.25-.1,1.88-.18"/>
  <path class="cls-3" d="M413.36,43.15c-8.58-8.58-22.49-8.58-31.07,0-3.27,3.27-5.29,7.32-6.06,11.55,0,0,0,0,0,.01-.03.15-.05.3-.07.46-.03.2-.07.4-.09.6-.04.27-.06.54-.09.81-.02.25-.04.51-.06.76-.02.3-.03.59-.04.89,0,.18,0,.35,0,.53,0,.25,0,.5.01.76,0,.18.02.36.03.54.02.26.04.51.06.77.02.17.03.34.05.5.04.28.08.56.12.84.02.14.04.28.07.42.08.42.16.84.26,1.25,2.14-13.89,18.7-12.3,27.73-11.54,9.81.82,11.82-6.5,9.16-9.16"/>
  <path class="cls-3" d="M400.54,80.48c.3-.04.59-.09.88-.14.27-.05.55-.08.82-.14.29-.06.58-.14.88-.21.27-.07.54-.12.81-.2.38-.11.75-.24,1.13-.37.44-.15.87-.32,1.3-.5.25-.11.51-.21.76-.32.28-.13.56-.28.83-.43.24-.13.49-.25.73-.38.27-.16.54-.32.81-.49.23-.15.47-.29.7-.45.26-.18.52-.37.77-.56.14-.11.29-.2.43-.31-.02.01-.05.02-.07.03.71-.55,1.4-1.14,2.05-1.79,1.49-1.49,2.71-3.13,3.68-4.88-5.71,6.07-15.61,8.94-21.75,5.55-6.64-3.66-6.31-9.3,2.33-9.14,5.02.1,8.61.39,12.48-.49,6.45-1.46,10.37-8.13,8.25-14.39-.06-.19-.13-.37-.2-.54-2.28,4.75-7.63,7.25-14.35,6.69-.44-.04-.9-.08-1.36-.12-11.32-1-20.54-.01-21.53,9.83-.34,3.42,1.97,8.08,5.5,10.72h0c.51.31,1.02.59,1.55.86.17.09.35.16.53.25.35.17.71.33,1.07.48.22.09.44.16.66.24.33.12.65.24.98.34.24.08.48.14.72.21.32.09.63.17.95.25.25.06.5.11.76.16.31.06.62.12.94.16.26.04.52.07.79.1.31.04.62.06.93.08.27.02.53.03.8.04.31.01.61.01.92,0,.27,0,.54,0,.81-.02.3-.01.6-.04.9-.06.27-.02.55-.04.82-.08"/>
  <path class="cls-3" d="M176.92,79.6c-1.42,0-2.58-.59-3.35-1.72l-12.99-17.61-2.57,2.58v12.68c0,1.14-.4,2.11-1.18,2.89s-1.77,1.18-2.89,1.18-2.05-.39-2.85-1.17c-.8-.77-1.22-1.78-1.22-2.9v-37.05c0-1.13.42-2.13,1.22-2.91.8-.77,1.76-1.16,2.85-1.16s2.12.41,2.89,1.18c.77.77,1.18,1.77,1.18,2.89v13.46l16.02-16.02c.55-.55,1.06-.93,1.57-1.15.52-.23,1.08-.35,1.65-.35,1.64,0,2.52.72,2.96,1.32.59.8.82,1.79.66,2.85-.15,1-.6,1.91-1.36,2.71l-13.24,13.29,13.61,18.53c.62.88.88,1.84.78,2.85-.1.97-.46,1.81-1.07,2.5-.67.75-1.59,1.15-2.67,1.15"/>
  <path class="cls-3" d="M204.55,79.6c-3.11,0-6.07-.59-8.78-1.77-2.71-1.17-5.11-2.83-7.13-4.93-2.02-2.09-3.61-4.57-4.74-7.37-1.13-2.8-1.7-5.86-1.7-9.11s.57-6.25,1.7-9.03c1.13-2.78,2.72-5.24,4.74-7.34s4.4-3.76,7.09-4.95c2.7-1.19,5.67-1.8,8.81-1.8,2.94,0,5.52.39,7.67,1.17,2.14.77,4.31,2.05,6.44,3.8.39.29.7.61.93.95.25.37.43.75.51,1.13.08.33.11.7.11,1.12,0,1.03-.39,1.94-1.13,2.62-.7.65-1.54,1.01-2.51,1.09-.1,0-.2.01-.3.01-.9,0-1.77-.32-2.58-.95l-.05-.04c-1.25-1.08-2.55-1.91-3.87-2.48-1.28-.55-3.04-.83-5.23-.83-1.97,0-3.84.4-5.56,1.2-1.75.8-3.3,1.93-4.63,3.34-1.33,1.41-2.38,3.08-3.12,4.95-.74,1.87-1.12,3.9-1.12,6.04s.38,4.22,1.12,6.09c.74,1.87,1.79,3.54,3.12,4.95,1.32,1.41,2.88,2.52,4.62,3.31,1.73.78,3.6,1.18,5.57,1.18,1.7,0,3.33-.29,4.84-.88,1.55-.59,3.06-1.44,4.5-2.5.81-.58,1.64-.88,2.47-.88.1,0,.2,0,.3.01.94.08,1.75.46,2.39,1.14.66.69,1,1.61,1,2.74,0,.53-.1,1.04-.31,1.54-.21.49-.52.95-.92,1.35l-.05.05-.05.04c-2.07,1.65-4.31,2.91-6.67,3.75-2.37.85-4.89,1.28-7.5,1.28"/>
  <path class="cls-3" d="M263.11,79.6c-3.11,0-6.07-.59-8.78-1.77-2.71-1.17-5.11-2.83-7.13-4.93-2.02-2.09-3.61-4.57-4.74-7.37-1.13-2.8-1.7-5.86-1.7-9.11s.57-6.25,1.7-9.03c1.13-2.78,2.72-5.24,4.74-7.34,2.02-2.1,4.4-3.76,7.09-4.95,2.7-1.19,5.67-1.8,8.81-1.8,2.94,0,5.52.39,7.67,1.17,2.14.77,4.31,2.05,6.44,3.8.38.29.7.61.93.95.25.37.43.75.51,1.14.08.33.11.7.11,1.12,0,1.02-.39,1.93-1.11,2.63-.71.68-1.58,1.06-2.59,1.11-.07,0-.14,0-.2,0-.95,0-1.83-.33-2.64-1-1.27-1.1-2.57-1.93-3.89-2.5-1.28-.55-3.04-.83-5.23-.83-1.97,0-3.84.4-5.56,1.2-1.75.8-3.3,1.93-4.63,3.34-1.33,1.41-2.38,3.08-3.12,4.95-.74,1.87-1.12,3.9-1.12,6.04s.38,4.22,1.12,6.09c.74,1.87,1.79,3.54,3.12,4.95,1.32,1.41,2.88,2.52,4.62,3.31,1.73.78,3.6,1.18,5.57,1.18,1.7,0,3.33-.29,4.84-.88.93-.36,1.85-.8,2.74-1.33v-7.82h-6.33c-1.1,0-2.06-.34-2.83-1.01-.81-.7-1.24-1.65-1.24-2.73s.43-2.03,1.24-2.73c.78-.67,1.73-1.01,2.83-1.01h10.23c1.16,0,2.17.4,2.91,1.17.74.76,1.11,1.74,1.11,2.9v13.08c0,.51-.09,1.01-.27,1.49-.2.54-.54,1.03-1.02,1.45-2.07,1.72-4.32,3-6.71,3.83-2.38.83-4.91,1.24-7.52,1.24"/>
  <path class="cls-3" d="M293.05,79.6c-1.86,0-3.53-.52-4.98-1.54-1.41-1-2.53-2.37-3.31-4.07-.76-1.67-1.15-3.6-1.15-5.74v-29.88c0-1.14.38-2.09,1.12-2.84.74-.74,1.72-1.12,2.84-1.12s2.1.39,2.83,1.12c.75.75,1.12,1.7,1.12,2.84v29.88c0,1.13.2,2.04.6,2.72.41.71.76.71.91.71h1.37c1.07,0,2,.41,2.69,1.18.66.74,1,1.68,1,2.79,0,1.19-.53,2.22-1.54,2.96-.9.67-2.05,1-3.41,1h-.11Z"/>
  <path class="cls-3" d="M314.28,79.6c-3.16,0-6-.71-8.43-2.1-2.44-1.4-4.39-3.36-5.79-5.82-1.4-2.46-2.1-5.3-2.1-8.46s.71-6.06,2.1-8.51c1.4-2.46,3.35-4.42,5.79-5.82,2.44-1.4,5.28-2.1,8.43-2.1s5.94.71,8.38,2.1c2.44,1.4,4.39,3.36,5.79,5.82,1.4,2.46,2.1,5.32,2.1,8.51s-.7,6-2.07,8.45c-1.38,2.47-3.32,4.43-5.77,5.83-2.44,1.4-5.28,2.1-8.43,2.1M314.28,54.15c-1.66,0-3.14.38-4.4,1.14-1.28.77-2.26,1.81-3,3.17-.74,1.36-1.11,2.96-1.11,4.75s.37,3.38,1.11,4.72c.74,1.35,1.72,2.38,3,3.15,1.26.76,2.74,1.14,4.41,1.14s3.14-.38,4.4-1.14c1.28-.77,2.25-1.8,2.97-3.14.72-1.35,1.09-2.94,1.09-4.73s-.37-3.4-1.09-4.76c-.72-1.36-1.69-2.4-2.97-3.16-1.26-.75-2.74-1.14-4.4-1.14"/>
  <path class="cls-3" d="M352.7,79.6c-3.05,0-5.84-.73-8.28-2.17-2.44-1.43-4.39-3.42-5.81-5.89-1.41-2.47-2.15-5.29-2.19-8.36v-24.97c0-1.18.39-2.16,1.17-2.91.76-.74,1.72-1.11,2.85-1.11s2.14.38,2.89,1.12c.75.75,1.13,1.72,1.13,2.89v11.86c.88-.7,1.83-1.31,2.86-1.82,1.97-.97,4.15-1.47,6.48-1.47,2.88,0,5.52.74,7.82,2.19,2.29,1.44,4.12,3.42,5.43,5.88,1.31,2.45,1.98,5.25,1.98,8.32s-.73,5.91-2.16,8.38c-1.43,2.47-3.39,4.45-5.83,5.89-2.44,1.44-5.25,2.17-8.34,2.17M352.7,54.15c-1.61,0-3.02.38-4.32,1.16-1.3.79-2.29,1.83-3.03,3.18-.74,1.34-1.11,2.91-1.11,4.67s.37,3.3,1.11,4.68c.74,1.38,1.73,2.44,3.03,3.22,1.29.78,2.71,1.16,4.32,1.16s3.07-.38,4.34-1.16c1.29-.79,2.28-1.85,3.04-3.24.75-1.38,1.14-2.95,1.14-4.67s-.38-3.31-1.13-4.66c-.75-1.34-1.77-2.41-3.05-3.19-1.28-.78-2.7-1.16-4.34-1.16"/>
  <path class="cls-3" d="M434.24,77.43c-2.43-1.43-4.4-3.41-5.83-5.89-1.44-2.48-2.16-5.3-2.16-8.38s.67-5.87,1.98-8.32c1.32-2.46,3.15-4.43,5.43-5.88,2.3-1.45,4.94-2.19,7.82-2.19,2.33,0,4.51.49,6.48,1.47,1.03.51,1.98,1.12,2.86,1.82v-11.86c0-1.17.38-2.14,1.13-2.89.75-.75,1.72-1.12,2.89-1.12s2.09.37,2.85,1.11c.78.75,1.17,1.73,1.17,2.91v24.97c-.04,3.08-.77,5.89-2.19,8.36-1.42,2.48-3.37,4.46-5.81,5.89-2.44,1.44-5.23,2.17-8.28,2.17s-5.9-.73-8.34-2.17M438.23,55.31c-1.27.78-2.3,1.85-3.05,3.19-.75,1.34-1.13,2.91-1.13,4.66s.38,3.29,1.14,4.67c.76,1.39,1.75,2.45,3.04,3.24,1.27.78,2.69,1.16,4.34,1.16s3.02-.38,4.32-1.16c1.3-.79,2.29-1.84,3.03-3.22.74-1.38,1.11-2.95,1.11-4.68s-.37-3.32-1.11-4.67c-.74-1.35-1.73-2.39-3.03-3.18-1.3-.78-2.71-1.16-4.32-1.16s-3.07.38-4.34,1.16"/>
  <path class="cls-3" d="M157.88,99.1c0,3.44-2.09,5.26-4.64,5.26s-4.49-2.04-4.49-5.07c0-3.17,1.97-5.25,4.64-5.25s4.49,2.09,4.49,5.06M150.13,99.26c0,2.13,1.16,4.05,3.19,4.05s3.2-1.88,3.2-4.15c0-1.99-1.04-4.06-3.19-4.06s-3.2,1.97-3.2,4.17"/>
  <path class="cls-3" d="M165.49,104.2v-9.99h1.41l3.2,5.05c.74,1.17,1.32,2.22,1.79,3.25l.03-.02c-.12-1.33-.15-2.55-.15-4.1v-4.18h1.22v9.99h-1.3l-3.17-5.07c-.7-1.11-1.36-2.25-1.87-3.34h-.05c.08,1.27.1,2.48.1,4.14v4.27h-1.22Z"/>
  <polygon class="cls-3" points="186.35 99.52 182.46 99.52 182.46 103.12 186.79 103.12 186.79 104.2 181.17 104.2 181.17 94.21 186.57 94.21 186.57 95.29 182.46 95.29 182.46 98.45 186.35 98.45 186.35 99.52"/>
  <path class="cls-3" d="M211.07,103.75c-.58.21-1.72.55-3.07.55-1.51,0-2.76-.39-3.74-1.32-.86-.83-1.39-2.16-1.39-3.72.02-2.98,2.06-5.16,5.41-5.16,1.15,0,2.06.25,2.49.46l-.31,1.05c-.53-.24-1.2-.43-2.21-.43-2.43,0-4.02,1.51-4.02,4.02s1.53,4.03,3.85,4.03c.84,0,1.42-.12,1.72-.27v-2.98h-2.03v-1.04h3.29v4.8Z"/>
  <polygon class="cls-3" points="218.98 94.21 220.26 94.21 220.26 103.12 224.53 103.12 224.53 104.2 218.98 104.2 218.98 94.21"/>
  <path class="cls-3" d="M239.86,99.1c0,3.44-2.09,5.26-4.64,5.26s-4.49-2.04-4.49-5.07c0-3.17,1.97-5.25,4.64-5.25s4.49,2.09,4.49,5.06M232.11,99.26c0,2.13,1.16,4.05,3.19,4.05s3.2-1.88,3.2-4.15c0-1.99-1.04-4.06-3.19-4.06s-3.2,1.97-3.2,4.17"/>
  <path class="cls-3" d="M247.47,94.34c.56-.12,1.45-.21,2.36-.21,1.29,0,2.12.22,2.74.73.52.39.83.98.83,1.76,0,.96-.64,1.81-1.69,2.19v.03c.95.24,2.06,1.02,2.06,2.5,0,.86-.34,1.51-.84,2-.7.64-1.82.93-3.45.93-.89,0-1.57-.06-2-.12v-9.83ZM248.76,98.43h1.17c1.36,0,2.16-.71,2.16-1.68,0-1.17-.89-1.63-2.19-1.63-.59,0-.93.04-1.14.09v3.22ZM248.76,103.22c.25.04.62.06,1.08.06,1.33,0,2.56-.49,2.56-1.94,0-1.36-1.17-1.93-2.58-1.93h-1.07v3.81Z"/>
  <polygon class="cls-3" points="266.61 99.52 262.72 99.52 262.72 103.12 267.05 103.12 267.05 104.2 261.43 104.2 261.43 94.21 266.83 94.21 266.83 95.29 262.72 95.29 262.72 98.45 266.61 98.45 266.61 99.52"/>
  <path class="cls-3" d="M292.27,99.1c0,3.44-2.09,5.26-4.64,5.26s-4.49-2.04-4.49-5.07c0-3.17,1.97-5.25,4.64-5.25s4.49,2.09,4.49,5.06M284.51,99.26c0,2.13,1.16,4.05,3.19,4.05s3.2-1.88,3.2-4.15c0-1.99-1.04-4.06-3.19-4.06s-3.2,1.97-3.2,4.17"/>
  <path class="cls-3" d="M299.87,104.2v-9.99h1.41l3.2,5.05c.74,1.17,1.32,2.22,1.79,3.25l.03-.02c-.12-1.33-.15-2.55-.15-4.1v-4.18h1.22v9.99h-1.3l-3.17-5.07c-.7-1.11-1.36-2.25-1.87-3.34h-.05c.08,1.27.1,2.48.1,4.14v4.27h-1.22Z"/>
  <polygon class="cls-3" points="320.73 99.52 316.85 99.52 316.85 103.12 321.17 103.12 321.17 104.2 315.56 104.2 315.56 94.21 320.95 94.21 320.95 95.29 316.85 95.29 316.85 98.45 320.73 98.45 320.73 99.52"/>
  <polygon class="cls-3" points="343.02 99.52 339.14 99.52 339.14 103.12 343.47 103.12 343.47 104.2 337.85 104.2 337.85 94.21 343.25 94.21 343.25 95.29 339.14 95.29 339.14 98.45 343.02 98.45 343.02 99.52"/>
  <path class="cls-3" d="M351.08,94.34c.79-.12,1.72-.21,2.74-.21,1.85,0,3.17.43,4.05,1.24.89.81,1.41,1.97,1.41,3.59s-.5,2.96-1.44,3.88c-.93.93-2.47,1.44-4.42,1.44-.92,0-1.69-.05-2.34-.12v-9.83ZM352.36,103.18c.33.06.8.07,1.31.07,2.76,0,4.25-1.54,4.25-4.24.01-2.36-1.32-3.85-4.05-3.85-.67,0-1.17.06-1.51.13v7.89Z"/>
  <path class="cls-3" d="M368.17,94.21v5.91c0,2.24.99,3.19,2.33,3.19,1.48,0,2.43-.98,2.43-3.19v-5.91h1.31v5.82c0,3.07-1.61,4.33-3.78,4.33-2.04,0-3.59-1.17-3.59-4.27v-5.88h1.3Z"/>
  <path class="cls-3" d="M389.38,103.87c-.47.24-1.42.47-2.64.47-2.82,0-4.94-1.78-4.94-5.05s2.12-5.25,5.22-5.25c1.25,0,2.03.27,2.37.44l-.31,1.05c-.49-.24-1.19-.41-2.02-.41-2.34,0-3.9,1.5-3.9,4.12,0,2.45,1.41,4.02,3.84,4.02.79,0,1.59-.16,2.11-.41l.27,1.02Z"/>
  <path class="cls-3" d="M398.6,101.06l-1.04,3.14h-1.33l3.4-9.99h1.55l3.41,9.99h-1.38l-1.07-3.14h-3.54ZM401.88,100.05l-.98-2.88c-.22-.65-.37-1.24-.52-1.82h-.03c-.15.59-.31,1.2-.5,1.81l-.98,2.89h3.01Z"/>
  <polygon class="cls-3" points="412.74 95.31 409.71 95.31 409.71 94.21 417.1 94.21 417.1 95.31 414.05 95.31 414.05 104.2 412.74 104.2 412.74 95.31"/>
  <rect class="cls-3" x="424.15" y="94.21" width="1.29" height="9.99"/>
  <path class="cls-3" d="M442.15,99.1c0,3.44-2.09,5.26-4.64,5.26s-4.49-2.04-4.49-5.07c0-3.17,1.97-5.25,4.64-5.25s4.49,2.09,4.49,5.06M434.4,99.26c0,2.13,1.16,4.05,3.19,4.05s3.2-1.88,3.2-4.15c0-1.99-1.04-4.06-3.19-4.06s-3.2,1.97-3.2,4.17"/>
  <path class="cls-3" d="M449.76,104.2v-9.99h1.41l3.2,5.05c.74,1.17,1.32,2.22,1.79,3.25l.03-.02c-.12-1.33-.15-2.55-.15-4.1v-4.18h1.22v9.99h-1.3l-3.17-5.07c-.7-1.11-1.36-2.25-1.87-3.34h-.05c.08,1.27.1,2.48.1,4.14v4.27h-1.22Z"/>
  <path class="cls-3" d="M157.88,99.1c0,3.44-2.09,5.26-4.64,5.26s-4.49-2.04-4.49-5.07c0-3.17,1.97-5.25,4.64-5.25s4.49,2.09,4.49,5.06M150.13,99.26c0,2.13,1.16,4.05,3.19,4.05s3.2-1.88,3.2-4.15c0-1.99-1.04-4.06-3.19-4.06s-3.2,1.97-3.2,4.17"/>
  <path class="cls-3" d="M165.49,104.2v-9.99h1.41l3.2,5.05c.74,1.17,1.32,2.22,1.79,3.25l.03-.02c-.12-1.33-.15-2.55-.15-4.1v-4.18h1.22v9.99h-1.3l-3.17-5.07c-.7-1.11-1.36-2.25-1.87-3.34h-.05c.08,1.27.1,2.48.1,4.14v4.27h-1.22Z"/>
  <polygon class="cls-3" points="186.35 99.52 182.46 99.52 182.46 103.12 186.79 103.12 186.79 104.2 181.17 104.2 181.17 94.21 186.57 94.21 186.57 95.29 182.46 95.29 182.46 98.45 186.35 98.45 186.35 99.52"/>
  <path class="cls-3" d="M211.07,103.75c-.58.21-1.72.55-3.07.55-1.51,0-2.76-.39-3.74-1.32-.86-.83-1.39-2.16-1.39-3.72.02-2.98,2.06-5.16,5.41-5.16,1.15,0,2.06.25,2.49.46l-.31,1.05c-.53-.24-1.2-.43-2.21-.43-2.43,0-4.02,1.51-4.02,4.02s1.53,4.03,3.85,4.03c.84,0,1.42-.12,1.72-.27v-2.98h-2.03v-1.04h3.29v4.8Z"/>
  <polygon class="cls-3" points="218.98 94.21 220.26 94.21 220.26 103.12 224.53 103.12 224.53 104.2 218.98 104.2 218.98 94.21"/>
  <path class="cls-3" d="M239.86,99.1c0,3.44-2.09,5.26-4.64,5.26s-4.49-2.04-4.49-5.07c0-3.17,1.97-5.25,4.64-5.25s4.49,2.09,4.49,5.06M232.11,99.26c0,2.13,1.16,4.05,3.19,4.05s3.2-1.88,3.2-4.15c0-1.99-1.04-4.06-3.19-4.06s-3.2,1.97-3.2,4.17"/>
  <path class="cls-3" d="M247.47,94.34c.56-.12,1.45-.21,2.36-.21,1.29,0,2.12.22,2.74.73.52.39.83.98.83,1.76,0,.96-.64,1.81-1.69,2.19v.03c.95.24,2.06,1.02,2.06,2.5,0,.86-.34,1.51-.84,2-.7.64-1.82.93-3.45.93-.89,0-1.57-.06-2-.12v-9.83ZM248.76,98.43h1.17c1.36,0,2.16-.71,2.16-1.68,0-1.17-.89-1.63-2.19-1.63-.59,0-.93.04-1.14.09v3.22ZM248.76,103.22c.25.04.62.06,1.08.06,1.33,0,2.56-.49,2.56-1.94,0-1.36-1.17-1.93-2.58-1.93h-1.07v3.81Z"/>
  <polygon class="cls-3" points="266.61 99.52 262.72 99.52 262.72 103.12 267.05 103.12 267.05 104.2 261.43 104.2 261.43 94.21 266.83 94.21 266.83 95.29 262.72 95.29 262.72 98.45 266.61 98.45 266.61 99.52"/>
  <path class="cls-3" d="M292.27,99.1c0,3.44-2.09,5.26-4.64,5.26s-4.49-2.04-4.49-5.07c0-3.17,1.97-5.25,4.64-5.25s4.49,2.09,4.49,5.06M284.51,99.26c0,2.13,1.16,4.05,3.19,4.05s3.2-1.88,3.2-4.15c0-1.99-1.04-4.06-3.19-4.06s-3.2,1.97-3.2,4.17"/>
  <path class="cls-3" d="M299.87,104.2v-9.99h1.41l3.2,5.05c.74,1.17,1.32,2.22,1.79,3.25l.03-.02c-.12-1.33-.15-2.55-.15-4.1v-4.18h1.22v9.99h-1.3l-3.17-5.07c-.7-1.11-1.36-2.25-1.87-3.34h-.05c.08,1.27.1,2.48.1,4.14v4.27h-1.22Z"/>
  <polygon class="cls-3" points="320.73 99.52 316.85 99.52 316.85 103.12 321.17 103.12 321.17 104.2 315.56 104.2 315.56 94.21 320.95 94.21 320.95 95.29 316.85 95.29 316.85 98.45 320.73 98.45 320.73 99.52"/>
  <polygon class="cls-3" points="343.02 99.52 339.14 99.52 339.14 103.12 343.47 103.12 343.47 104.2 337.85 104.2 337.85 94.21 343.25 94.21 343.25 95.29 339.14 95.29 339.14 98.45 343.02 98.45 343.02 99.52"/>
  <path class="cls-3" d="M351.08,94.34c.79-.12,1.72-.21,2.74-.21,1.85,0,3.17.43,4.05,1.24.89.81,1.41,1.97,1.41,3.59s-.5,2.96-1.44,3.88c-.93.93-2.47,1.44-4.42,1.44-.92,0-1.69-.05-2.34-.12v-9.83ZM352.36,103.18c.33.06.8.07,1.31.07,2.76,0,4.25-1.54,4.25-4.24.01-2.36-1.32-3.85-4.05-3.85-.67,0-1.17.06-1.51.13v7.89Z"/>
  <path class="cls-3" d="M368.17,94.21v5.91c0,2.24.99,3.19,2.33,3.19,1.48,0,2.43-.98,2.43-3.19v-5.91h1.31v5.82c0,3.07-1.61,4.33-3.78,4.33-2.04,0-3.59-1.17-3.59-4.27v-5.88h1.3Z"/>
  <path class="cls-3" d="M389.38,103.87c-.47.24-1.42.47-2.64.47-2.82,0-4.94-1.78-4.94-5.05s2.12-5.25,5.22-5.25c1.25,0,2.03.27,2.37.44l-.31,1.05c-.49-.24-1.19-.41-2.02-.41-2.34,0-3.9,1.5-3.9,4.12,0,2.45,1.41,4.02,3.84,4.02.79,0,1.59-.16,2.11-.41l.27,1.02Z"/>
  <path class="cls-3" d="M398.6,101.06l-1.04,3.14h-1.33l3.4-9.99h1.55l3.41,9.99h-1.38l-1.07-3.14h-3.54ZM401.88,100.05l-.98-2.88c-.22-.65-.37-1.24-.52-1.82h-.03c-.15.59-.31,1.2-.5,1.81l-.98,2.89h3.01Z"/>
  <polygon class="cls-3" points="412.74 95.31 409.71 95.31 409.71 94.21 417.1 94.21 417.1 95.31 414.05 95.31 414.05 104.2 412.74 104.2 412.74 95.31"/>
  <rect class="cls-3" x="424.15" y="94.21" width="1.29" height="9.99"/>
  <path class="cls-3" d="M442.15,99.1c0,3.44-2.09,5.26-4.64,5.26s-4.49-2.04-4.49-5.07c0-3.17,1.97-5.25,4.64-5.25s4.49,2.09,4.49,5.06M434.4,99.26c0,2.13,1.16,4.05,3.19,4.05s3.2-1.88,3.2-4.15c0-1.99-1.04-4.06-3.19-4.06s-3.2,1.97-3.2,4.17"/>
  <path class="cls-3" d="M449.76,104.2v-9.99h1.41l3.2,5.05c.74,1.17,1.32,2.22,1.79,3.25l.03-.02c-.12-1.33-.15-2.55-.15-4.1v-4.18h1.22v9.99h-1.3l-3.17-5.07c-.7-1.11-1.36-2.25-1.87-3.34h-.05c.08,1.27.1,2.48.1,4.14v4.27h-1.22Z"/>
</svg>